<?xml version="1.0" encoding="UTF-8" standalone="no"?>
<svg
   xmlns:dc="http://purl.org/dc/elements/1.1/"
   xmlns:cc="http://creativecommons.org/ns#"
   xmlns:rdf="http://www.w3.org/1999/02/22-rdf-syntax-ns#"
   xmlns:svg="http://www.w3.org/2000/svg"
   xmlns="http://www.w3.org/2000/svg"
   xmlns:sodipodi="http://sodipodi.sourceforge.net/DTD/sodipodi-0.dtd"
   xmlns:inkscape="http://www.inkscape.org/namespaces/inkscape"
   width="750"
   height="750"
   viewBox="0 0 750.00001 750"
   id="svg2"
   version="1.1"
   inkscape:version="0.91 r13725"
   sodipodi:docname="icon.svg">
  <defs
     id="defs4" />
  <sodipodi:namedview
     id="base"
     pagecolor="#ffffff"
     bordercolor="#666666"
     borderopacity="1.0"
     inkscape:pageopacity="0"
     inkscape:pageshadow="2"
     inkscape:zoom="0.90509668"
     inkscape:cx="256.45836"
     inkscape:cy="353.03276"
     inkscape:document-units="px"
     inkscape:current-layer="layer1"
     showgrid="false"
     inkscape:showpageshadow="false"
     inkscape:window-width="1920"
     inkscape:window-height="1147"
     inkscape:window-x="0"
     inkscape:window-y="0"
     inkscape:window-maximized="1"
     units="px" />
  <metadata
     id="metadata7">
    <rdf:RDF>
      <cc:Work
         rdf:about="">
        <dc:format>image/svg+xml</dc:format>
        <dc:type
           rdf:resource="http://purl.org/dc/dcmitype/StillImage" />
        <dc:title></dc:title>
      </cc:Work>
    </rdf:RDF>
  </metadata>
  <g
     inkscape:label="Layer 1"
     inkscape:groupmode="layer"
     id="layer1"
     transform="translate(0,-302.36219)">
    <g
       style="fill:none"
       id="g4307"
       transform="matrix(2.4525781,0,0,2.4525781,54.869849,302.36142)">
      <path
         d="m 24.8457,63.071 5e-4,-3e-4 105.6558,-61.9114 129.554,75.891 0,123.7887 c 0,17.286 -9.089,33.255 -23.846,41.891 l 0,0 -105.708,61.912 -129.50197,-75.891 0,-123.735 c 0,-17.3403 9.08897,-33.3091 23.84567,-41.945 z"
         id="Vector"
         inkscape:connector-curvature="0"
         style="fill:#215cff;stroke:#215cff;stroke-width:2" />
    </g>
    <path
       style="fill:none;fill-opacity:0.09259261;stroke:#ffffff;stroke-width:25;stroke-miterlimit:4;stroke-dasharray:none;stroke-opacity:1"
       d="m 188.38658,625.83322 0,238.14227 238.14225,-1e-5 -0.001,-135.08431 -103.05667,0 -10e-6,-103.05667 -135.0843,-0.001 z m 135.08431,10e-4 103.05794,-10e-4 -0.001,103.05793 135.08558,0 10e-6,-238.14226 -238.14227,10e-6 0,135.08558 z"
       id="rect4136"
       inkscape:connector-curvature="0" />
  </g>
</svg>
